<svg xmlns="http://www.w3.org/2000/svg" viewBox="0 0 515.41 560.84"><defs><style>.cls-1{fill:#fff;}</style></defs><title>paw</title><g id="Layer_2" data-name="Layer 2"><g id="FINAL_VERSION" data-name="FINAL VERSION"><g id="MAIN"><path class="cls-1" d="M254.3,285.62c74.43,23.59,99.8,141.8,99.8,141.8s36.16,103.05-14.41,128.23c-28.82,14.11-59.73-3-79.4-21.7s-59.43-56.78-132.2-47.56-96.26-18.55-100.83-45.9S39,390.34,65,358.75,156.62,255.51,254.3,285.62Z"/><ellipse class="cls-1" cx="211.81" cy="97.01" rx="97.1" ry="69.22" transform="translate(102.09 302.53) rotate(-86.51)"/><ellipse class="cls-1" cx="375.15" cy="148.79" rx="97.1" ry="69.22" transform="translate(51.48 389.86) rotate(-58.31)"/><ellipse class="cls-1" cx="439.08" cy="319.13" rx="91.04" ry="64.9" transform="translate(-85.24 459.58) rotate(-51.01)"/><ellipse class="cls-1" cx="65.05" cy="200.58" rx="64.9" ry="91.04" transform="matrix(1, -0.07, 0.07, 1, -13.22, 4.78)"/></g></g></g></svg>